<svg width="22" height="22" viewBox="0 0 22 22" fill="none" xmlns="http://www.w3.org/2000/svg">
    <g clipPath="url(#clip0_422_12327)">
<path d="M21.7843 11.2532C21.7843 10.5055 21.7236 9.75369 21.5943 9.01807H11.2188V13.254H17.1603C16.9138 14.6201 16.1216 15.8286 14.9615 16.5966V19.3451H18.5063C20.5879 17.4292 21.7843 14.5999 21.7843 11.2532Z" fill="#4285F4"/>
<path d="M11.2205 22.0006C14.1872 22.0006 16.6892 21.0265 18.5121 19.345L14.9673 16.5965C13.9811 17.2675 12.7079 17.6474 11.2245 17.6474C8.3548 17.6474 5.92158 15.7114 5.04853 13.1084H1.39062V15.9418C3.25798 19.6563 7.0614 22.0006 11.2205 22.0006Z" fill="#34A853"/>
<path d="M5.04274 13.1085C4.58197 11.7423 4.58197 10.263 5.04274 8.89684V6.06348H1.38888C-0.171292 9.17169 -0.171292 12.8336 1.38888 15.9418L5.04274 13.1085Z" fill="#FBBC04"/>
<path d="M11.2205 4.35385C12.7888 4.3296 14.3045 4.91972 15.4402 6.00295L18.5808 2.8624C16.5922 0.995046 13.9528 -0.0315938 11.2205 0.000741277C7.06139 0.000741277 3.25798 2.34504 1.39062 6.06357L5.04449 8.89694C5.9135 6.28992 8.35076 4.35385 11.2205 4.35385Z" fill="#EA4335"/>
</g>
<defs>
<clipPath id="clip0_422_12327">
<rect width="22" height="22" fill="white"/>
</clipPath>
</defs>
</svg>
