<svg width="17" height="17" viewBox="0 0 17 17" fill="none" xmlns="http://www.w3.org/2000/svg">
    <path fillRule="evenodd" clipRule="evenodd"
          d="M12.3866 4.72863C12.4139 4.77641 12.4618 4.81054 12.5233 4.81054C14.1633 4.81054 15.5026 6.14839 15.5026 7.78657V11.8411C15.5026 13.4792 14.1633 14.8171 12.5233 14.8171H4.81527C3.16844 14.8171 1.83594 13.4792 1.83594 11.8411V7.78657C1.83594 6.14839 3.16844 4.81054 4.81527 4.81054C4.86994 4.81054 4.9246 4.78324 4.9451 4.72863L4.9861 4.64672C5.00966 4.59714 5.03384 4.54622 5.05838 4.49452C5.2332 4.1263 5.4266 3.71894 5.54644 3.47952C5.86077 2.8652 6.39377 2.52392 7.0566 2.51709H10.2751C10.9379 2.52392 11.4778 2.8652 11.7921 3.47952C11.8997 3.69454 12.0637 4.04091 12.2218 4.37474C12.2544 4.4436 12.2867 4.51193 12.3183 4.57847L12.3866 4.72863ZM11.8884 7.34968C11.8884 7.69096 12.1617 7.96399 12.5034 7.96399C12.8451 7.96399 13.1252 7.69096 13.1252 7.34968C13.1252 7.00839 12.8451 6.72853 12.5034 6.72853C12.1617 6.72853 11.8884 7.00839 11.8884 7.34968ZM7.48751 8.40781C7.80868 8.087 8.22551 7.91636 8.66968 7.91636C9.11385 7.91636 9.53068 8.087 9.84501 8.40099C10.1593 8.71497 10.3302 9.13134 10.3302 9.57501C10.3233 10.4897 9.58535 11.2337 8.66968 11.2337C8.22551 11.2337 7.80868 11.063 7.49435 10.749C7.18001 10.4351 7.00918 10.0187 7.00918 9.57501V9.56819C7.00235 9.13817 7.17318 8.7218 7.48751 8.40781ZM10.5624 11.4724C10.0773 11.9571 9.40761 12.2574 8.66961 12.2574C7.95211 12.2574 7.28244 11.9775 6.76994 11.4724C6.26427 10.9605 5.98411 10.2916 5.98411 9.57488C5.97727 8.865 6.25744 8.19608 6.76311 7.68414C7.27561 7.17221 7.95211 6.89236 8.66961 6.89236C9.38711 6.89236 10.0636 7.17221 10.5693 7.67732C11.0749 8.18925 11.3551 8.865 11.3551 9.57488C11.3483 10.3189 11.0476 10.9878 10.5624 11.4724Z"
          fill="white"/>
</svg>